<svg xmlns="http://www.w3.org/2000/svg" width="16" height="16" fill="currentColor" viewBox="0 0 16 16">
  <path fill="#0D0D0D" fill-rule="evenodd" d="M10.467 2.468c.551 0 .997 0 1.357.029.366.03.691.093.992.247l.175.097c.396.244.72.593.932 1.01l.054.114c.115.269.166.558.192.878.03.36.03.806.03 1.357v3.6c0 .551 0 .997-.03 1.357a2.76 2.76 0 0 1-.192.878l-.054.114a2.534 2.534 0 0 1-.932 1.01l-.175.097c-.3.154-.626.217-.992.247-.36.03-.806.029-1.357.029H5.534c-.552 0-.997 0-1.357-.029a2.764 2.764 0 0 1-.879-.194l-.114-.053a2.534 2.534 0 0 1-1.009-.932l-.098-.175c-.153-.301-.217-.626-.247-.992-.029-.36-.028-.806-.028-1.357V6.2c0-.551-.001-.997.028-1.357.03-.366.094-.69.247-.992a2.53 2.53 0 0 1 1.107-1.107c.302-.154.626-.217.993-.247.36-.03.805-.029 1.357-.029h4.933Zm-3.935 4.73v5.27h3.935c.569 0 .964 0 1.27-.026.3-.024.47-.07.597-.134l.1-.056c.23-.142.418-.344.541-.586l.045-.104a2 2 0 0 0 .09-.492 18 18 0 0 0 .025-1.27V7.198H6.532ZM2.866 9.8c0 .569 0 .963.025 1.27.025.3.07.47.135.596l.056.101c.141.23.343.418.585.54l.104.046c.115.041.267.07.492.09.295.023.671.024 1.205.024V7.198H2.866V9.8Zm3.666-3.666h6.603c0-.533-.002-.91-.026-1.204a1.933 1.933 0 0 0-.09-.493l-.044-.103a1.468 1.468 0 0 0-.54-.586l-.101-.056c-.127-.064-.296-.11-.596-.134a17.303 17.303 0 0 0-1.27-.026H6.531v2.602ZM5.468 3.532c-.534 0-.91.002-1.205.026-.3.024-.47.07-.596.134-.276.14-.5.365-.641.642-.065.126-.11.295-.135.596-.024.295-.025.67-.025 1.204h2.602V3.532Z" clip-rule="evenodd"/>
</svg>
